# Blender 3.5.1
# www.blender.org
mtllib litter.mtl
o Cube.003
v -19.501465 1.991409 -5.340637
v -19.501465 -0.613713 -5.340637
v -19.501465 1.991408 -0.961676
v -19.501465 -0.613713 -0.961677
v 3.460588 1.991409 -5.340637
v 3.460588 -0.613713 -5.340637
v 3.460588 1.991408 -0.961676
v 3.460588 -0.613713 -0.961677
v -1.236290 1.159501 0.356573
v -1.510652 -0.550063 -0.644485
v 0.412753 1.522496 -0.715291
v 0.138391 -0.187068 -1.716349
v -0.138390 0.187068 1.716349
v -0.412752 -1.522496 0.715291
v 1.510653 0.550063 0.644485
v 1.236291 -1.159501 -0.356573
v -6.013761 -0.000000 1.147954
v -6.013761 2.255729 1.147954
v -6.013761 -0.000000 0.116997
v -6.013761 2.255729 0.116997
v -2.246210 -0.000000 1.147954
v -2.246210 2.255729 1.147954
v -2.246210 -0.000000 0.116997
v -2.246210 2.255729 0.116997
v -7.918017 0.931276 2.140444
v -7.918017 1.153411 2.140444
v -7.918017 0.931276 0.899235
v -7.918017 1.153411 0.899235
v 3.642394 0.931276 2.140444
v 3.642394 1.153411 2.140444
v 3.642394 0.931276 0.899235
v 3.642394 1.153411 0.899235
vn -1.0000 -0.0000 -0.0000
vn -0.0000 -0.0000 1.0000
vn 1.0000 -0.0000 -0.0000
vn -0.0000 -0.0000 -1.0000
vn -0.0000 1.0000 -0.0000
vn -0.0000 -1.0000 -0.0000
vn 0.1372 0.8548 0.5005
vn 0.8245 0.1815 -0.5359
vn 0.5490 -0.4862 0.6799
vn -0.1372 -0.8548 -0.5005
vn -0.5489 0.4862 -0.6799
vn -0.8245 -0.1815 0.5359
vt 0.375000 0.000000
vt 0.375000 1.000000
vt 0.125000 0.750000
vt 0.625000 0.000000
vt 0.625000 1.000000
vt 0.875000 0.750000
vt 0.125000 0.500000
vt 0.375000 0.250000
vt 0.625000 0.250000
vt 0.875000 0.500000
vt 0.375000 0.750000
vt 0.625000 0.750000
vt 0.375000 0.500000
vt 0.625000 0.500000
vt 0.625000 0.500000
vt 0.375000 0.500000
vt 0.625000 0.750000
vt 0.375000 0.750000
vt 0.875000 0.500000
vt 0.625000 0.250000
vt 0.125000 0.500000
vt 0.375000 0.250000
vt 0.875000 0.750000
vt 0.625000 1.000000
vt 0.625000 0.000000
vt 0.375000 1.000000
vt 0.375000 0.000000
vt 0.125000 0.750000
vt 0.375000 0.000000
vt 0.375000 1.000000
vt 0.125000 0.750000
vt 0.625000 0.000000
vt 0.625000 1.000000
vt 0.875000 0.750000
vt 0.125000 0.500000
vt 0.375000 0.250000
vt 0.625000 0.250000
vt 0.875000 0.500000
vt 0.375000 0.750000
vt 0.625000 0.750000
vt 0.375000 0.500000
vt 0.625000 0.500000
vt 0.375000 0.000000
vt 0.375000 1.000000
vt 0.125000 0.750000
vt 0.625000 0.000000
vt 0.625000 1.000000
vt 0.875000 0.750000
vt 0.375000 0.250000
vt 0.125000 0.500000
vt 0.625000 0.250000
vt 0.875000 0.500000
vt 0.375000 0.750000
vt 0.625000 0.750000
vt 0.375000 0.500000
vt 0.625000 0.500000
s 0
usemtl Material
f 2/4/1 3/8/1 1/1/1
f 4/9/2 7/13/2 3/8/2
f 8/14/3 5/11/3 7/13/3
f 6/12/4 1/2/4 5/11/4
f 7/13/5 1/3/5 3/7/5
f 4/10/6 6/12/6 8/14/6
f 9/15/7 15/23/7 11/17/7
f 12/18/8 15/24/8 16/26/8
f 15/25/9 14/22/9 16/27/9
f 10/16/10 16/28/10 14/21/10
f 10/16/11 11/17/11 12/18/11
f 13/20/12 10/16/12 14/22/12
f 18/32/1 19/36/1 17/29/1
f 20/37/4 23/41/4 19/36/4
f 24/42/3 21/39/3 23/41/3
f 22/40/2 17/30/2 21/39/2
f 23/41/6 17/31/6 19/35/6
f 20/38/5 22/40/5 24/42/5
f 25/43/1 28/51/1 27/49/1
f 28/51/4 31/55/4 27/49/4
f 32/56/3 29/53/3 31/55/3
f 30/54/2 25/44/2 29/53/2
f 31/55/6 25/45/6 27/50/6
f 28/52/5 30/54/5 32/56/5
f 2/4/1 4/9/1 3/8/1
f 4/9/2 8/14/2 7/13/2
f 8/14/3 6/12/3 5/11/3
f 6/12/4 2/5/4 1/2/4
f 7/13/5 5/11/5 1/3/5
f 4/10/6 2/6/6 6/12/6
f 9/15/7 13/19/7 15/23/7
f 12/18/8 11/17/8 15/24/8
f 15/25/9 13/20/9 14/22/9
f 10/16/10 12/18/10 16/28/10
f 10/16/11 9/15/11 11/17/11
f 13/20/12 9/15/12 10/16/12
f 18/32/1 20/37/1 19/36/1
f 20/37/4 24/42/4 23/41/4
f 24/42/3 22/40/3 21/39/3
f 22/40/2 18/33/2 17/30/2
f 23/41/6 21/39/6 17/31/6
f 20/38/5 18/34/5 22/40/5
f 25/43/1 26/46/1 28/51/1
f 28/51/4 32/56/4 31/55/4
f 32/56/3 30/54/3 29/53/3
f 30/54/2 26/47/2 25/44/2
f 31/55/6 29/53/6 25/45/6
f 28/52/5 26/48/5 30/54/5
